RBDS001runT45_grf
version=1
nRows=30
nColumns=19
inDegrees=no
endheader
time	ground_force_r_vx	ground_force_r_vy	ground_force_r_vz	ground_force_r_px	ground_force_r_py	ground_force_r_pz	ground_force_r_mx	ground_force_r_my	ground_force_r_mz	ground_force_l_vx	ground_force_l_vy	ground_force_l_vz	ground_force_l_px	ground_force_l_py	ground_force_l_pz	ground_force_l_mx	ground_force_l_my	ground_force_l_mz
      7.49900000	      0.00000000	      0.00000000	      0.00000000	      0.00000000	      0.00000000	      0.00000000	      0.00000000	      0.00000000	      0.00000000	   -230.46184354	   1262.02444432	    -38.84649908	      2.52030480	      0.00000000	      1.01047548	     -0.00000000	      0.40630518	      0.00000000
      7.50000000	      0.00000000	      0.00000000	      0.00000000	      0.00000000	      0.00000000	      0.00000000	      0.00000000	      0.00000000	      0.00000000	   -231.86271553	   1281.23301476	    -39.99346734	      2.51689551	      0.00000000	      1.01107618	     -0.00000000	      0.42024596	      0.00000000
      7.50100000	      0.00000000	      0.00000000	      0.00000000	      0.00000000	      0.00000000	      0.00000000	      0.00000000	      0.00000000	      0.00000000	   -232.53617161	   1298.49304137	    -41.03047743	      2.51337197	      0.00000000	      1.01158222	     -0.00000000	      0.39223038	      0.00000000
      7.50200000	      0.00000000	      0.00000000	      0.00000000	      0.00000000	      0.00000000	      0.00000000	      0.00000000	      0.00000000	      0.00000000	   -233.20962770	   1315.75306798	    -42.06748751	      2.50984843	      0.00000000	      1.01208825	     -0.00000000	      0.36421481	      0.00000000
      7.50300000	      0.00000000	      0.00000000	      0.00000000	      0.00000000	      0.00000000	      0.00000000	      0.00000000	      0.00000000	      0.00000000	   -233.88308378	   1333.01309459	    -43.10449760	      2.50632488	      0.00000000	      1.01259428	     -0.00000000	      0.33619923	      0.00000000
      7.50400000	      0.00000000	      0.00000000	      0.00000000	      0.00000000	      0.00000000	      0.00000000	      0.00000000	      0.00000000	      0.00000000	   -234.05836919	   1348.99696735	    -44.03245683	      2.50273013	      0.00000000	      1.01303720	     -0.00000000	      0.29053020	      0.00000000
      7.50500000	      0.00000000	      0.00000000	      0.00000000	      0.00000000	      0.00000000	      0.00000000	      0.00000000	      0.00000000	      0.00000000	   -233.98456926	   1364.34276319	    -44.90589064	      2.49909978	      0.00000000	      1.01344857	     -0.00000000	      0.23603445	      0.00000000
      7.50600000	      0.00000000	      0.00000000	      0.00000000	      0.00000000	      0.00000000	      0.00000000	      0.00000000	      0.00000000	      0.00000000	   -233.91076932	   1379.68855903	    -45.77932444	      2.49546942	      0.00000000	      1.01385993	     -0.00000000	      0.18153869	      0.00000000
      7.50700000	      0.00000000	      0.00000000	      0.00000000	      0.00000000	      0.00000000	      0.00000000	      0.00000000	      0.00000000	      0.00000000	   -233.58483956	   1394.41516957	    -46.58322992	      2.49180649	      0.00000000	      1.01424035	     -0.00000000	      0.12325006	      0.00000000
      7.50800000	      0.00000000	      0.00000000	      0.00000000	      0.00000000	      0.00000000	      0.00000000	      0.00000000	      0.00000000	      0.00000000	   -232.75465013	   1407.90340952	    -47.24807872	      2.48807840	      0.00000000	      1.01455889	     -0.00000000	      0.05737566	      0.00000000
      7.50900000	      0.00000000	      0.00000000	      0.00000000	      0.00000000	      0.00000000	      0.00000000	      0.00000000	      0.00000000	      0.00000000	   -231.92446071	   1421.39164947	    -47.91292753	      2.48435032	      0.00000000	      1.01487742	     -0.00000000	     -0.00849875	      0.00000000
      7.51000000	      0.00000000	      0.00000000	      0.00000000	      0.00000000	      0.00000000	      0.00000000	      0.00000000	      0.00000000	      0.00000000	   -231.09427129	   1434.87988942	    -48.57777634	      2.48062223	      0.00000000	      1.01519596	     -0.00000000	     -0.07437315	      0.00000000
      7.51100000	      0.00000000	      0.00000000	      0.00000000	      0.00000000	      0.00000000	      0.00000000	      0.00000000	      0.00000000	      0.00000000	   -229.50907345	   1446.58440227	    -49.00031719	      2.47680659	      0.00000000	      1.01542528	     -0.00000000	     -0.13764507	      0.00000000
      7.51200000	      0.00000000	      0.00000000	      0.00000000	      0.00000000	      0.00000000	      0.00000000	      0.00000000	      0.00000000	      0.00000000	   -227.92387561	   1458.28891513	    -49.42285803	      2.47299094	      0.00000000	      1.01565460	     -0.00000000	     -0.20091699	      0.00000000
      7.51300000	      0.00000000	      0.00000000	      0.00000000	      0.00000000	      0.00000000	      0.00000000	      0.00000000	      0.00000000	      0.00000000	   -226.33867777	   1469.99342798	    -49.84539888	      2.46917530	      0.00000000	      1.01588392	     -0.00000000	     -0.26418891	      0.00000000
      7.51400000	      0.00000000	      0.00000000	      0.00000000	      0.00000000	      0.00000000	      0.00000000	      0.00000000	      0.00000000	      0.00000000	   -224.25781311	   1480.56578583	    -50.09266549	      2.46530842	      0.00000000	      1.01605730	     -0.00000000	     -0.31756317	      0.00000000
      7.51500000	      0.00000000	      0.00000000	      0.00000000	      0.00000000	      0.00000000	      0.00000000	      0.00000000	      0.00000000	      0.00000000	   -221.92911503	   1490.57206618	    -50.25229497	      2.46141593	      0.00000000	      1.01620271	     -0.00000000	     -0.36598861	      0.00000000
      7.51600000	      0.00000000	      0.00000000	      0.00000000	      0.00000000	      0.00000000	      0.00000000	      0.00000000	      0.00000000	      0.00000000	   -219.60041696	   1500.57834652	    -50.41192446	      2.45752343	      0.00000000	      1.01634812	     -0.00000000	     -0.41441404	      0.00000000
      7.51700000	      0.00000000	      0.00000000	      0.00000000	      0.00000000	      0.00000000	      0.00000000	      0.00000000	      0.00000000	      0.00000000	   -217.03091612	   1510.04911716	    -50.48172455	      2.45360889	      0.00000000	      1.01646783	     -0.00000000	     -0.45454198	      0.00000000
      7.51800000	      0.00000000	      0.00000000	      0.00000000	      0.00000000	      0.00000000	      0.00000000	      0.00000000	      0.00000000	      0.00000000	   -213.97980974	   1518.44886836	    -50.37186585	      2.44965025	      0.00000000	      1.01653613	     -0.00000000	     -0.47807493	      0.00000000
      7.51900000	      0.00000000	      0.00000000	      0.00000000	      0.00000000	      0.00000000	      0.00000000	      0.00000000	      0.00000000	      0.00000000	   -210.92870336	   1526.84861957	    -50.26200714	      2.44569161	      0.00000000	      1.01660443	     -0.00000000	     -0.50160789	      0.00000000
      7.52000000	      0.00000000	      0.00000000	      0.00000000	      0.00000000	      0.00000000	      0.00000000	      0.00000000	      0.00000000	      0.00000000	   -207.87759698	   1535.24837078	    -50.15214843	      2.44173297	      0.00000000	      1.01667274	     -0.00000000	     -0.52514084	      0.00000000
      7.52100000	      0.00000000	      0.00000000	      0.00000000	      0.00000000	      0.00000000	      0.00000000	      0.00000000	      0.00000000	      0.00000000	   -204.13409847	   1542.13435376	    -49.78022287	      2.43771839	      0.00000000	      1.01667204	     -0.00000000	     -0.51622704	      0.00000000
      7.52200000	      0.00000000	      0.00000000	      0.00000000	      0.00000000	      0.00000000	      0.00000000	      0.00000000	      0.00000000	      0.00000000	   -200.39059997	   1549.02033673	    -49.40829730	      2.43370381	      0.00000000	      1.01667135	     -0.00000000	     -0.50731323	      0.00000000
      7.52300000	      0.00000000	      0.00000000	      0.00000000	      0.00000000	      0.00000000	      0.00000000	      0.00000000	      0.00000000	      0.00000000	   -196.64710146	   1555.90631971	    -49.03637173	      2.42968924	      0.00000000	      1.01667066	     -0.00000000	     -0.49839942	      0.00000000
      7.52400000	      0.00000000	      0.00000000	      0.00000000	      0.00000000	      0.00000000	      0.00000000	      0.00000000	      0.00000000	      0.00000000	   -192.46747678	   1561.84258739	    -48.50341485	      2.42564357	      0.00000000	      1.01663006	     -0.00000000	     -0.46456546	      0.00000000
      7.52500000	      0.00000000	      0.00000000	      0.00000000	      0.00000000	      0.00000000	      0.00000000	      0.00000000	      0.00000000	      0.00000000	   -188.06978902	   1567.30399743	    -47.88994231	      2.42158237	      0.00000000	      1.01656951	     -0.00000000	     -0.41827144	      0.00000000
      7.52600000	      0.00000000	      0.00000000	      0.00000000	      0.00000000	      0.00000000	      0.00000000	      0.00000000	      0.00000000	      0.00000000	   -183.67210125	   1572.76540747	    -47.27646977	      2.41752116	      0.00000000	      1.01650897	     -0.00000000	     -0.37197742	      0.00000000
      7.52700000	      0.00000000	      0.00000000	      0.00000000	      0.00000000	      0.00000000	      0.00000000	      0.00000000	      0.00000000	      0.00000000	   -179.07155462	   1577.77919305	    -46.59313973	      2.41344709	      0.00000000	      1.01643177	     -0.00000000	     -0.31244511	      0.00000000
      7.52800000	      0.00000000	      0.00000000	      0.00000000	      0.00000000	      0.00000000	      0.00000000	      0.00000000	      0.00000000	      0.00000000	   -174.06529024	   1581.89772975	    -45.77009466	      2.40934730	      0.00000000	      1.01632125	     -0.00000000	     -0.22643623	      0.00000000
